<svg width="15" height="14" viewBox="0 0 15 14" fill="none" xmlns="http://www.w3.org/2000/svg">
<path fill-rule="evenodd" clip-rule="evenodd" d="M10.5311 0C12.7706 0 14.4587 1.83261 14.4587 4.26282V8.89526C14.4587 10.139 14.0208 11.2627 13.2239 12.06C12.509 12.7743 11.5816 13.1527 10.5419 13.1527H3.91545C2.87774 13.1527 1.951 12.775 1.23543 12.06C0.438488 11.2627 0 10.139 0 8.89526V4.26282C0 1.83261 1.68804 0 3.92756 0H10.5311ZM10.5311 1.01174H3.92756C2.23683 1.01174 1.00879 2.37895 1.00879 4.26282V8.89526C1.00879 9.86856 1.34236 10.738 1.94764 11.343C2.46952 11.8657 3.15079 12.1409 3.91747 12.1409H10.5311C10.5324 12.1396 10.5378 12.1409 10.5419 12.1409C11.3085 12.1409 11.9898 11.8657 12.5117 11.343C13.117 10.738 13.4505 9.86856 13.4505 8.89526V4.26282C13.4505 2.37895 12.2225 1.01174 10.5311 1.01174ZM11.591 4.13399C11.6327 4.18558 11.6639 4.24492 11.6828 4.3086C11.7017 4.37229 11.7078 4.43907 11.701 4.50515C11.6941 4.57123 11.6743 4.63531 11.6428 4.69372C11.6112 4.75213 11.5685 4.80373 11.517 4.84558L8.52899 7.28186C8.16678 7.57321 7.71654 7.73233 7.25223 7.73306C6.78793 7.7338 6.33718 7.57611 5.97406 7.28591L2.95777 4.84693C2.86256 4.7601 2.80399 4.6401 2.79401 4.51143C2.78403 4.38275 2.8234 4.25511 2.90409 4.15456C2.98477 4.05401 3.10068 3.98815 3.22814 3.97041C3.35561 3.95267 3.48502 3.9844 3.58995 4.05912L6.60422 6.4954C6.78831 6.64172 7.01643 6.72112 7.25132 6.72063C7.48621 6.72014 7.714 6.63979 7.89749 6.4927L10.8808 4.06047C10.9322 4.01847 10.9914 3.98705 11.0549 3.96802C11.1185 3.94898 11.1851 3.9427 11.2511 3.94953C11.3171 3.95635 11.381 3.97616 11.4394 4.00781C11.4977 4.03947 11.5492 4.08234 11.591 4.13399Z" fill="white"/>
</svg>
