<svg width="62" height="150" viewBox="0 0 62 150" fill="none" xmlns="http://www.w3.org/2000/svg">
<path d="M15.9 110.4C15.0333 110.4 14.0667 110.233 13 109.9C11.9333 109.5 11 108.833 10.2 107.9C9.4 106.9 9 105.533 9 103.8C9 102.2 9.33333 100.467 10 98.6C10.6667 96.7333 11.5 94.8667 12.5 93C13.5667 91.0667 14.5667 89.3 15.5 87.7L21.5 90.8C20.8333 92 20.2 93.3 19.6 94.7C19 96.0333 18.5 97.2333 18.1 98.3C17.7 99.3 17.4667 100 17.4 100.4C18.9333 100.8 20.0333 101.433 20.7 102.3C21.4333 103.1 21.8 103.967 21.8 104.9C21.8 106.367 21.3333 107.667 20.4 108.8C19.4667 109.867 17.9667 110.4 15.9 110.4Z" fill="#322D7A"/>
<path d="M44.9 110.4C44.0333 110.4 43.0667 110.233 42 109.9C40.9333 109.5 40 108.833 39.2 107.9C38.4 106.9 38 105.533 38 103.8C38 102.2 38.3333 100.467 39 98.6C39.6667 96.7333 40.5 94.8667 41.5 93C42.5667 91.0667 43.5667 89.3 44.5 87.7L50.5 90.8C49.8333 92 49.2 93.3 48.6 94.7C48 96.0333 47.5 97.2333 47.1 98.3C46.7 99.3 46.4667 100 46.4 100.4C47.9333 100.8 49.0333 101.433 49.7 102.3C50.4333 103.1 50.8 103.967 50.8 104.9C50.8 106.367 50.3333 107.667 49.4 108.8C48.4667 109.867 46.9667 110.4 44.9 110.4Z" fill="#322D7A"/>
</svg>
